<svg width="32" height="32" viewBox="0 0 32 32" fill="none" xmlns="http://www.w3.org/2000/svg">
<rect width="32" height="32" rx="8" fill="#4850E5"/>
<path d="M7 24.5C6.45 24.5 5.97917 24.3042 5.5875 23.9125C5.19583 23.5208 5 23.05 5 22.5C5 21.95 5.19583 21.4792 5.5875 21.0875C5.97917 20.6958 6.45 20.5 7 20.5C7.1 20.5 7.1875 20.5 7.2625 20.5C7.3375 20.5 7.41667 20.5167 7.5 20.55L12.05 16C12.0167 15.9167 12 15.8375 12 15.7625C12 15.6875 12 15.6 12 15.5C12 14.95 12.1958 14.4792 12.5875 14.0875C12.9792 13.6958 13.45 13.5 14 13.5C14.55 13.5 15.0208 13.6958 15.4125 14.0875C15.8042 14.4792 16 14.95 16 15.5C16 15.5333 15.9833 15.7 15.95 16L18.5 18.55C18.5833 18.5167 18.6625 18.5 18.7375 18.5C18.8125 18.5 18.9 18.5 19 18.5C19.1 18.5 19.1875 18.5 19.2625 18.5C19.3375 18.5 19.4167 18.5167 19.5 18.55L23.05 15C23.0167 14.9167 23 14.8375 23 14.7625C23 14.6875 23 14.6 23 14.5C23 13.95 23.1958 13.4792 23.5875 13.0875C23.9792 12.6958 24.45 12.5 25 12.5C25.55 12.5 26.0208 12.6958 26.4125 13.0875C26.8042 13.4792 27 13.95 27 14.5C27 15.05 26.8042 15.5208 26.4125 15.9125C26.0208 16.3042 25.55 16.5 25 16.5C24.9 16.5 24.8125 16.5 24.7375 16.5C24.6625 16.5 24.5833 16.4833 24.5 16.45L20.95 20C20.9833 20.0833 21 20.1625 21 20.2375C21 20.3125 21 20.4 21 20.5C21 21.05 20.8042 21.5208 20.4125 21.9125C20.0208 22.3042 19.55 22.5 19 22.5C18.45 22.5 17.9792 22.3042 17.5875 21.9125C17.1958 21.5208 17 21.05 17 20.5C17 20.4 17 20.3125 17 20.2375C17 20.1625 17.0167 20.0833 17.05 20L14.5 17.45C14.4167 17.4833 14.3375 17.5 14.2625 17.5C14.1875 17.5 14.1 17.5 14 17.5C13.9667 17.5 13.8 17.4833 13.5 17.45L8.95 22C8.98333 22.0833 9 22.1625 9 22.2375C9 22.3125 9 22.4 9 22.5C9 23.05 8.80417 23.5208 8.4125 23.9125C8.02083 24.3042 7.55 24.5 7 24.5ZM8 14.475L7.375 13.125L6.025 12.5L7.375 11.875L8 10.525L8.625 11.875L9.975 12.5L8.625 13.125L8 14.475ZM19 13.5L18.05 11.45L16 10.5L18.05 9.55L19 7.5L19.95 9.55L22 10.5L19.95 11.45L19 13.5Z" fill="white"/>
</svg>
